# xmcd
#
# Track frame offsets:
#	150
#	7718
#	22391
#	42625
#	63804
#	70086
#	80400
#	97797
#	120036
#	145351
#	169678
#	190143
#
# Disc length: 2832 seconds
#
# Revision: 1
# Processed by: cddbd v1.5.1PL0 Copyright (c) Steve Scherf et al.
# Submitted via: EasyCDDAExtractor 7.1.0.1
#
DISCID=900b0e0c
DTITLE=hank pine and lily fawn - the road to new orleans [cd 2]
DYEAR=2005
DGENRE=punk
TTITLE0=showtune
TTITLE1=barfly
TTITLE2=junkie shuffle
TTITLE3=alligator boy
TTITLE4=olde people
TTITLE5=ford pier
TTITLE6=janet the winged girl
TTITLE7=laika
TTITLE8=princess vampire
TTITLE9=necrophilia
TTITLE10=the bar at the bottom of the sea
TTITLE11=tofino song
EXTD=
EXTT0=
EXTT1=
EXTT2=
EXTT3=
EXTT4=
EXTT5=
EXTT6=
EXTT7=
EXTT8=
EXTT9=
EXTT10=
EXTT11=
PLAYORDER=
